<?xml version="1.0" encoding="UTF-8"?>
<!DOCTYPE svg PUBLIC "-//W3C//DTD SVG 1.1//EN" "http://www.w3.org/Graphics/SVG/1.1/DTD/svg11.dtd">
<svg xmlns="http://www.w3.org/2000/svg" version="1.1" width="200px" height="200px" style="shape-rendering:geometricPrecision; text-rendering:geometricPrecision; image-rendering:optimizeQuality; fill-rule:evenodd; clip-rule:evenodd" xmlns:xlink="http://www.w3.org/1999/xlink">
<g><path style="opacity:1" fill="#fefefe" d="M -0.5,-0.5 C 66.1667,-0.5 132.833,-0.5 199.5,-0.5C 199.5,66.1667 199.5,132.833 199.5,199.5C 132.833,199.5 66.1667,199.5 -0.5,199.5C -0.5,132.833 -0.5,66.1667 -0.5,-0.5 Z"/></g>
<g><path style="opacity:1" fill="#317774" d="M 18.5,63.5 C 33.5,63.5 48.5,63.5 63.5,63.5C 63.5,78.8333 63.5,94.1667 63.5,109.5C 48.5,109.5 33.5,109.5 18.5,109.5C 18.5,94.1667 18.5,78.8333 18.5,63.5 Z"/></g>
<g><path style="opacity:1" fill="#387b78" d="M 77.5,63.5 C 92.5,63.5 107.5,63.5 122.5,63.5C 122.5,78.8333 122.5,94.1667 122.5,109.5C 107.5,109.5 92.5,109.5 77.5,109.5C 77.5,94.1667 77.5,78.8333 77.5,63.5 Z"/></g>
<g><path style="opacity:1" fill="#337876" d="M 135.5,63.5 C 150.5,63.5 165.5,63.5 180.5,63.5C 180.5,78.8333 180.5,94.1667 180.5,109.5C 165.5,109.5 150.5,109.5 135.5,109.5C 135.5,94.1667 135.5,78.8333 135.5,63.5 Z"/></g>
<g><path style="opacity:1" fill="#f4f7f7" d="M 175.5,90.5 C 174.833,90.5 174.167,90.5 173.5,90.5C 173.519,88.9397 173.852,87.4397 174.5,86C 174.164,84.9701 173.497,84.4701 172.5,84.5C 172.66,82.8008 172.494,81.1341 172,79.5C 169.853,80.1125 167.686,80.7792 165.5,81.5C 166.127,82.4168 166.461,83.4168 166.5,84.5C 166.629,86.2161 166.962,87.8828 167.5,89.5C 166.732,90.2625 166.232,91.2625 166,92.5C 165.051,90.9069 163.885,89.5736 162.5,88.5C 162.53,87.5028 162.03,86.8361 161,86.5C 159.56,87.1476 158.06,87.4809 156.5,87.5C 156.5,86.8333 156.5,86.1667 156.5,85.5C 156.62,83.8014 156.954,82.1347 157.5,80.5C 157.471,78.9707 156.804,77.804 155.5,77C 156.308,76.6924 156.975,76.1924 157.5,75.5C 156.167,74.5 156.167,73.5 157.5,72.5C 155.53,71.5569 154.03,72.2236 153,74.5C 151.812,73.4366 151.312,72.1033 151.5,70.5C 167.071,68.0701 175.071,74.7367 175.5,90.5 Z"/></g>
<g><path style="opacity:1" fill="#f1f6f5" d="M 38.5,70.5 C 40.1238,70.3601 41.2904,71.0267 42,72.5C 42.1786,75.5535 42.6786,78.5535 43.5,81.5C 48.2419,84.871 52.5752,88.7044 56.5,93C 56.3333,93.5 56.1667,94 56,94.5C 51.7525,92.2934 47.5859,89.96 43.5,87.5C 42.2563,91.7803 41.7563,96.1137 42,100.5C 43.4866,101.155 44.6533,102.155 45.5,103.5C 44.8333,103.833 44.1667,104.167 43.5,104.5C 40.4993,103.514 37.4993,103.347 34.5,104C 36.6766,102.503 38.01,100.503 38.5,98C 37.8773,94.5187 37.3773,91.0187 37,87.5C 32.5234,90.3385 28.0234,92.3385 23.5,93.5C 27.677,89.1575 32.177,85.1575 37,81.5C 37.4196,77.8086 37.9196,74.1419 38.5,70.5 Z"/></g>
<g><path style="opacity:1" fill="#eff4f4" d="M 107.5,73.5 C 107.715,75.1788 107.048,76.1788 105.5,76.5C 104.129,75.2132 102.295,74.5465 100,74.5C 97.9674,74.5056 96.134,74.8389 94.5,75.5C 93.609,76.1098 92.609,76.4431 91.5,76.5C 91.2965,74.6096 91.9632,73.1096 93.5,72C 97.8333,71.3333 102.167,71.3333 106.5,72C 107.056,72.3826 107.389,72.8826 107.5,73.5 Z"/></g>
<g><path style="opacity:1" fill="#2c7471" d="M 105.5,76.5 C 103.866,77.1611 102.033,77.4944 100,77.5C 97.7047,77.4535 95.8714,76.7868 94.5,75.5C 96.134,74.8389 97.9674,74.5056 100,74.5C 102.295,74.5465 104.129,75.2132 105.5,76.5 Z"/></g>
<g><path style="opacity:1" fill="#c3d7d6" d="M 107.5,73.5 C 108.451,74.9187 108.784,76.5853 108.5,78.5C 102.833,78.5 97.1667,78.5 91.5,78.5C 91.5,86.1667 91.5,93.8333 91.5,101.5C 90.1862,93.2651 90.1862,84.9318 91.5,76.5C 92.609,76.4431 93.609,76.1098 94.5,75.5C 95.8714,76.7868 97.7047,77.4535 100,77.5C 102.033,77.4944 103.866,77.1611 105.5,76.5C 107.048,76.1788 107.715,75.1788 107.5,73.5 Z"/></g>
<g><path style="opacity:1" fill="#fcfdfd" d="M 82.5,77.5 C 84.5,77.5 86.5,77.5 88.5,77.5C 88.5,85.5 88.5,93.5 88.5,101.5C 86.5,101.5 84.5,101.5 82.5,101.5C 82.5,93.5 82.5,85.5 82.5,77.5 Z"/></g>
<g><path style="opacity:1" fill="#fdfdfd" d="M 108.5,78.5 C 108.5,86.1667 108.5,93.8333 108.5,101.5C 102.833,101.5 97.1667,101.5 91.5,101.5C 91.5,93.8333 91.5,86.1667 91.5,78.5C 97.1667,78.5 102.833,78.5 108.5,78.5 Z"/></g>
<g><path style="opacity:1" fill="#9bbebc" d="M 117.5,78.5 C 115.5,78.5 113.5,78.5 111.5,78.5C 111.5,86.1667 111.5,93.8333 111.5,101.5C 110.508,93.6841 110.174,85.6841 110.5,77.5C 113.059,77.1984 115.393,77.5318 117.5,78.5 Z"/></g>
<g><path style="opacity:1" fill="#fefefe" d="M 117.5,78.5 C 117.5,86.1667 117.5,93.8333 117.5,101.5C 115.5,101.5 113.5,101.5 111.5,101.5C 111.5,93.8333 111.5,86.1667 111.5,78.5C 113.5,78.5 115.5,78.5 117.5,78.5 Z"/></g>
<g><path style="opacity:1" fill="#7ca8a6" d="M 151.5,70.5 C 151.312,72.1033 151.812,73.4366 153,74.5C 154.03,72.2236 155.53,71.5569 157.5,72.5C 156.167,73.5 156.167,74.5 157.5,75.5C 156.975,76.1924 156.308,76.6924 155.5,77C 156.804,77.804 157.471,78.9707 157.5,80.5C 156.954,82.1347 156.62,83.8014 156.5,85.5C 154.871,83.9397 153.704,84.273 153,86.5C 152.25,85.8742 151.416,85.3742 150.5,85C 151.416,84.7216 152.082,84.2216 152.5,83.5C 151.839,82.2825 151.172,80.9492 150.5,79.5C 149.893,79.6236 149.56,79.9569 149.5,80.5C 146.982,79.3063 146.982,78.1396 149.5,77C 147.064,76.8762 144.731,77.3762 142.5,78.5C 144.88,75.1195 147.88,72.4528 151.5,70.5 Z"/></g>
<g><path style="opacity:1" fill="#307674" d="M 152.5,83.5 C 152.051,80.7102 152.051,78.0436 152.5,75.5C 154.663,77.6473 155.663,80.314 155.5,83.5C 154.5,83.5 153.5,83.5 152.5,83.5 Z"/></g>
<g><path style="opacity:1" fill="#4d8986" d="M 158.5,78.5 C 164.882,78.7718 165.048,79.7718 159,81.5C 158.517,80.552 158.351,79.552 158.5,78.5 Z"/></g>
<g><path style="opacity:1" fill="#42817e" d="M 94.5,80.5 C 98.5025,80.9713 101.669,82.9713 104,86.5C 103.833,89.3333 102.333,90.8333 99.5,91C 97.6667,89.1667 95.8333,87.3333 94,85.5C 93.3603,83.735 93.5269,82.0683 94.5,80.5 Z"/></g>
<g><path style="opacity:1" fill="#669996" d="M 172.5,84.5 C 172.189,85.4778 171.522,86.1445 170.5,86.5C 170.331,85.6034 169.998,84.6034 169.5,83.5C 168.583,84.1272 167.583,84.4606 166.5,84.5C 166.461,83.4168 166.127,82.4168 165.5,81.5C 167.686,80.7792 169.853,80.1125 172,79.5C 172.494,81.1341 172.66,82.8008 172.5,84.5 Z"/></g>
<g><path style="opacity:1" fill="#42817f" d="M 152.5,83.5 C 152.082,84.2216 151.416,84.7216 150.5,85C 151.416,85.3742 152.25,85.8742 153,86.5C 153.704,84.273 154.871,83.9397 156.5,85.5C 156.5,86.1667 156.5,86.8333 156.5,87.5C 153.933,87.7215 151.599,88.3882 149.5,89.5C 147.833,88.8333 146.167,88.1667 144.5,87.5C 144.5,86.5 144.5,85.5 144.5,84.5C 147.344,84.6574 149.011,83.324 149.5,80.5C 149.56,79.9569 149.893,79.6236 150.5,79.5C 151.172,80.9492 151.839,82.2825 152.5,83.5 Z"/></g>
<g><path style="opacity:1" fill="#3a7d7a" d="M 172.5,84.5 C 173.497,84.4701 174.164,84.9701 174.5,86C 173.852,87.4397 173.519,88.9397 173.5,90.5C 172.778,90.0825 172.278,89.4158 172,88.5C 170.265,96.8523 168.765,97.1856 167.5,89.5C 166.962,87.8828 166.629,86.2161 166.5,84.5C 167.583,84.4606 168.583,84.1272 169.5,83.5C 169.998,84.6034 170.331,85.6034 170.5,86.5C 171.522,86.1445 172.189,85.4778 172.5,84.5 Z"/></g>
<g><path style="opacity:1" fill="#f3f7f7" d="M 149.5,80.5 C 149.011,83.324 147.344,84.6574 144.5,84.5C 144.5,85.5 144.5,86.5 144.5,87.5C 146.167,88.1667 147.833,88.8333 149.5,89.5C 152.59,91.4538 153.257,94.1205 151.5,97.5C 150.833,97.5 150.5,97.8333 150.5,98.5C 149.833,99.5 149.167,100.5 148.5,101.5C 147.5,100.833 146.5,100.167 145.5,99.5C 146.824,97.442 146.324,95.7753 144,94.5C 143.617,95.056 143.117,95.3893 142.5,95.5C 139.895,89.8059 139.895,84.1392 142.5,78.5C 144.731,77.3762 147.064,76.8762 149.5,77C 146.982,78.1396 146.982,79.3063 149.5,80.5 Z"/></g>
<g><path style="opacity:1" fill="#4a8784" d="M 144.5,87.5 C 144.313,89.5643 143.813,91.5643 143,93.5C 141.75,90.9234 141.416,88.2567 142,85.5C 142.708,86.3805 143.542,87.0472 144.5,87.5 Z"/></g>
<g><path style="opacity:1" fill="#73a2a0" d="M 156.5,87.5 C 154.238,89.5442 154.904,91.0442 158.5,92C 157.333,92.5 156.5,93.3333 156,94.5C 155.586,94.0426 155.086,93.7093 154.5,93.5C 153.758,95.1082 153.591,96.7749 154,98.5C 153.329,97.7476 152.496,97.4142 151.5,97.5C 153.257,94.1205 152.59,91.4538 149.5,89.5C 151.599,88.3882 153.933,87.7215 156.5,87.5 Z"/></g>
<g><path style="opacity:1" fill="#3b7d7a" d="M 162.5,88.5 C 162.389,89.1174 162.056,89.6174 161.5,90C 163.236,91.9391 164.236,94.2724 164.5,97C 164.167,97.5 163.833,98 163.5,98.5C 162.416,97.3349 161.583,96.0016 161,94.5C 160.405,95.8989 160.572,97.2322 161.5,98.5C 160.397,98.9976 159.397,99.3309 158.5,99.5C 159.127,100.417 159.461,101.417 159.5,102.5C 158.609,103.11 157.609,103.443 156.5,103.5C 156.082,102.778 155.416,102.278 154.5,102C 157.279,101.851 157.779,101.017 156,99.5C 153.765,100.98 151.932,100.647 150.5,98.5C 150.5,97.8333 150.833,97.5 151.5,97.5C 152.496,97.4142 153.329,97.7476 154,98.5C 153.591,96.7749 153.758,95.1082 154.5,93.5C 155.086,93.7093 155.586,94.0426 156,94.5C 156.5,93.3333 157.333,92.5 158.5,92C 154.904,91.0442 154.238,89.5442 156.5,87.5C 158.06,87.4809 159.56,87.1476 161,86.5C 162.03,86.8361 162.53,87.5028 162.5,88.5 Z"/></g>
<g><path style="opacity:1" fill="#c7dad9" d="M 174.5,91.5 C 174.348,95.1407 172.682,97.8073 169.5,99.5C 171.17,96.8252 172.836,94.1586 174.5,91.5 Z"/></g>
<g><path style="opacity:1" fill="#70a09e" d="M 162.5,88.5 C 163.885,89.5736 165.051,90.9069 166,92.5C 166.232,91.2625 166.732,90.2625 167.5,89.5C 168.765,97.1856 170.265,96.8523 172,88.5C 172.278,89.4158 172.778,90.0825 173.5,90.5C 174.167,90.5 174.833,90.5 175.5,90.5C 175.5,91.1667 175.167,91.5 174.5,91.5C 172.836,94.1586 171.17,96.8252 169.5,99.5C 165.956,99.8848 162.623,100.885 159.5,102.5C 159.461,101.417 159.127,100.417 158.5,99.5C 159.397,99.3309 160.397,98.9976 161.5,98.5C 160.572,97.2322 160.405,95.8989 161,94.5C 161.583,96.0016 162.416,97.3349 163.5,98.5C 163.833,98 164.167,97.5 164.5,97C 164.236,94.2724 163.236,91.9391 161.5,90C 162.056,89.6174 162.389,89.1174 162.5,88.5 Z"/></g>
<g><path style="opacity:1" fill="#a4c2c1" d="M 145.5,99.5 C 144.512,98.205 143.512,96.8717 142.5,95.5C 143.117,95.3893 143.617,95.056 144,94.5C 146.324,95.7753 146.824,97.442 145.5,99.5 Z"/></g>
<g><path style="opacity:1" fill="#bad1d0" d="M 150.5,98.5 C 151.932,100.647 153.765,100.98 156,99.5C 157.779,101.017 157.279,101.851 154.5,102C 155.416,102.278 156.082,102.778 156.5,103.5C 155.833,103.5 155.5,103.833 155.5,104.5C 152.843,104.065 150.509,103.065 148.5,101.5C 149.167,100.5 149.833,99.5 150.5,98.5 Z"/></g>
<g><path style="opacity:1" fill="#e9f0f0" d="M 169.5,99.5 C 168.657,101.173 167.324,102.34 165.5,103C 162.243,104.043 158.91,104.543 155.5,104.5C 155.5,103.833 155.833,103.5 156.5,103.5C 157.609,103.443 158.609,103.11 159.5,102.5C 162.623,100.885 165.956,99.8848 169.5,99.5 Z"/></g>
<g><path style="opacity:1" fill="#639795" d="M 46.5,114.5 C 47.5,114.5 48.5,114.5 49.5,114.5C 49.5,119.167 49.5,123.833 49.5,128.5C 51.924,128.192 54.2573,128.526 56.5,129.5C 53.2317,130.487 49.8984,130.82 46.5,130.5C 46.5,125.167 46.5,119.833 46.5,114.5 Z"/></g>
<g><path style="opacity:1" fill="#2b7470" d="M 59.5,114.5 C 61.337,114.639 61.6704,115.306 60.5,116.5C 59.7025,116.043 59.3691,115.376 59.5,114.5 Z"/></g>
<g><path style="opacity:1" fill="#488583" d="M 68.5,113.5 C 69.9778,113.238 71.3112,113.571 72.5,114.5C 71.675,115.386 70.675,115.719 69.5,115.5C 69.5,116.5 69.5,117.5 69.5,118.5C 73.5,119.167 73.5,119.833 69.5,120.5C 69.8204,123.898 69.487,127.232 68.5,130.5C 67.9978,126.634 66.9978,122.967 65.5,119.5C 67.0433,117.747 68.0433,115.747 68.5,113.5 Z"/></g>
<g><path style="opacity:1" fill="#367a77" d="M 86.5,114.5 C 90.5546,114.176 94.5546,114.509 98.5,115.5C 96.9547,116.452 95.288,116.785 93.5,116.5C 92.8333,135.167 92.1667,135.167 91.5,116.5C 89.2188,116.923 87.5521,116.256 86.5,114.5 Z"/></g>
<g><path style="opacity:1" fill="#649795" d="M 148.5,113.5 C 149.5,113.5 150.5,113.5 151.5,113.5C 150.954,119.067 151.621,124.4 153.5,129.5C 151.994,130.747 150.494,130.747 149,129.5C 148.501,124.177 148.334,118.844 148.5,113.5 Z"/></g>
<g><path style="opacity:1" fill="#2f7673" d="M 59.5,118.5 C 60.7943,120.048 61.4609,122.048 61.5,124.5C 61.1667,126.5 60.8333,128.5 60.5,130.5C 59.5091,126.555 59.1758,122.555 59.5,118.5 Z"/></g>
<g><path style="opacity:1" fill="#347976" d="M 101.5,118.5 C 103.585,119.35 105.585,119.684 107.5,119.5C 106.672,120.415 105.672,121.081 104.5,121.5C 103.833,124.5 103.167,127.5 102.5,130.5C 101.509,126.555 101.176,122.555 101.5,118.5 Z"/></g>
<g><path style="opacity:1" fill="#3c7e7b" d="M 144.5,120.5 C 144.5,121.833 144.5,123.167 144.5,124.5C 141.941,124.198 139.607,124.532 137.5,125.5C 138.323,129.919 140.49,130.586 144,127.5C 144.483,128.448 144.649,129.448 144.5,130.5C 141.813,130.664 139.146,130.497 136.5,130C 134.933,126.108 135.267,122.442 137.5,119C 140.212,118.174 142.545,118.674 144.5,120.5 Z"/></g>
<g><path style="opacity:1" fill="#3d7e7b" d="M 83.5,120.5 C 83.5,121.833 83.5,123.167 83.5,124.5C 81.1667,124.5 78.8333,124.5 76.5,124.5C 76.2322,126.099 76.5655,127.432 77.5,128.5C 79.4888,129.887 81.3221,129.553 83,127.5C 83.4828,128.448 83.6495,129.448 83.5,130.5C 80.7531,130.813 78.0865,130.48 75.5,129.5C 73.9096,125.738 74.243,122.238 76.5,119C 78.5,118.333 80.5,118.333 82.5,119C 83.056,119.383 83.3893,119.883 83.5,120.5 Z"/></g>
<g><path style="opacity:1" fill="#f8fafa" d="M 77.5,120.5 C 78.8333,120.5 80.1667,120.5 81.5,120.5C 81.5,121.5 81.5,122.5 81.5,123.5C 79.712,123.785 78.0453,123.452 76.5,122.5C 76.8627,121.817 77.1961,121.15 77.5,120.5 Z"/></g>
<g><path style="opacity:1" fill="#42827f" d="M 122.5,118.5 C 123.376,118.369 124.043,118.702 124.5,119.5C 125.383,122.325 126.55,124.992 128,127.5C 128.875,124.372 130.042,121.372 131.5,118.5C 131.833,119 132.167,119.5 132.5,120C 131.044,123.4 130.044,126.9 129.5,130.5C 128.325,130.719 127.325,130.386 126.5,129.5C 124.762,125.951 123.429,122.284 122.5,118.5 Z"/></g>
<g><path style="opacity:1" fill="#fafbfb" d="M 137.5,120.5 C 139.167,120.5 140.833,120.5 142.5,120.5C 142.5,121.5 142.5,122.5 142.5,123.5C 140.833,123.5 139.167,123.5 137.5,123.5C 137.5,122.5 137.5,121.5 137.5,120.5 Z"/></g>
<g><path style="opacity:1" fill="#94b8b7" d="M 83.5,120.5 C 84.4511,121.919 84.7845,123.585 84.5,125.5C 82.1667,125.5 79.8333,125.5 77.5,125.5C 77.5,126.5 77.5,127.5 77.5,128.5C 76.5655,127.432 76.2322,126.099 76.5,124.5C 78.8333,124.5 81.1667,124.5 83.5,124.5C 83.5,123.167 83.5,121.833 83.5,120.5 Z"/></g>
<g><path style="opacity:1" fill="#99bbba" d="M 144.5,120.5 C 145.451,121.919 145.784,123.585 145.5,125.5C 142.833,125.5 140.167,125.5 137.5,125.5C 139.607,124.532 141.941,124.198 144.5,124.5C 144.5,123.167 144.5,121.833 144.5,120.5 Z"/></g>
<g><path style="opacity:1" fill="#4c8885" d="M 112.5,118.5 C 115.044,118.104 117.211,118.771 119,120.5C 119.212,123.758 119.712,126.924 120.5,130C 117.093,130.404 113.593,130.237 110,129.5C 109.95,125.399 112.116,123.399 116.5,123.5C 116.5,122.5 116.5,121.5 116.5,120.5C 114.508,120.328 112.842,120.995 111.5,122.5C 111.167,122 110.833,121.5 110.5,121C 111.056,119.989 111.722,119.156 112.5,118.5 Z"/></g>
<g><path style="opacity:1" fill="#e6eeee" d="M 112.5,125.5 C 113.833,125.5 115.167,125.5 116.5,125.5C 116.114,129.738 114.448,130.404 111.5,127.5C 111.863,126.817 112.196,126.15 112.5,125.5 Z"/></g>
</svg>
